<?xml version="1.0" encoding="UTF-8" standalone="no"?>
<svg
   id="svg13986"
   height="128"
   width="128"
   version="1.1"
   sodipodi:docname="128.svg"
   inkscape:version="1.2.2 (b0a8486541, 2022-12-01)"
   xmlns:inkscape="http://www.inkscape.org/namespaces/inkscape"
   xmlns:sodipodi="http://sodipodi.sourceforge.net/DTD/sodipodi-0.dtd"
   xmlns:xlink="http://www.w3.org/1999/xlink"
   xmlns="http://www.w3.org/2000/svg"
   xmlns:svg="http://www.w3.org/2000/svg"
   xmlns:rdf="http://www.w3.org/1999/02/22-rdf-syntax-ns#"
   xmlns:cc="http://creativecommons.org/ns#"
   xmlns:dc="http://purl.org/dc/elements/1.1/">
  <sodipodi:namedview
     id="namedview69"
     pagecolor="#ffffff"
     bordercolor="#666666"
     borderopacity="1.0"
     inkscape:showpageshadow="2"
     inkscape:pageopacity="0.0"
     inkscape:pagecheckerboard="0"
     inkscape:deskcolor="#d1d1d1"
     showgrid="false"
     inkscape:zoom="1.3476563"
     inkscape:cx="14.84058"
     inkscape:cy="56.765217"
     inkscape:window-width="1920"
     inkscape:window-height="1019"
     inkscape:window-x="0"
     inkscape:window-y="30"
     inkscape:window-maximized="1"
     inkscape:current-layer="svg13986" />
  <defs
     id="defs13988">
    <linearGradient
       id="linearGradient1894">
      <stop
         offset="0"
         style="stop-color:#ecdeb4;stop-opacity:1;"
         id="stop1886" />
      <stop
         offset="1"
         style="stop-color:#ffffff;stop-opacity:0;"
         id="stop1892" />
    </linearGradient>
    <linearGradient
       id="linearGradient27416-1-2">
      <stop
         offset="0"
         style="stop-color:#55c1ec;stop-opacity:1"
         id="stop27420-2-0" />
      <stop
         offset="1"
         style="stop-color:#3689e6;stop-opacity:1"
         id="stop27422-3-5" />
    </linearGradient>
    <linearGradient
       id="linearGradient3924-2-2-5-8">
      <stop
         offset="0"
         style="stop-color:#ffffff;stop-opacity:1"
         id="stop3926-9-4-9-6" />
      <stop
         offset="0.06316455"
         style="stop-color:#ffffff;stop-opacity:0.23529412"
         id="stop3928-9-8-6-5" />
      <stop
         offset="0.95056331"
         style="stop-color:#ffffff;stop-opacity:0.15686275"
         id="stop3930-3-5-1-7" />
      <stop
         offset="1"
         style="stop-color:#ffffff;stop-opacity:0.39215687"
         id="stop3932-8-0-4-8" />
    </linearGradient>
    <radialGradient
       gradientTransform="matrix(2.003784,0,0,1.4,27.98813,-17.4)"
       gradientUnits="userSpaceOnUse"
       xlink:href="#linearGradient3688-166-749-4-0-3-8"
       id="radialGradient3337-2-2"
       fy="43.5"
       fx="4.9929786"
       r="2.5"
       cy="43.5"
       cx="4.9929786" />
    <linearGradient
       id="linearGradient3688-166-749-4-0-3-8">
      <stop
         offset="0"
         style="stop-color:#181818;stop-opacity:1"
         id="stop2883-4-0-1-8" />
      <stop
         offset="1"
         style="stop-color:#181818;stop-opacity:0"
         id="stop2885-9-2-9-6" />
    </linearGradient>
    <radialGradient
       gradientTransform="matrix(2.003784,0,0,1.4,-20.01187,-104.4)"
       gradientUnits="userSpaceOnUse"
       xlink:href="#linearGradient3688-464-309-9-2-4-2"
       id="radialGradient3339-1-4"
       fy="43.5"
       fx="4.9929786"
       r="2.5"
       cy="43.5"
       cx="4.9929786" />
    <linearGradient
       id="linearGradient3688-464-309-9-2-4-2">
      <stop
         offset="0"
         style="stop-color:#181818;stop-opacity:1"
         id="stop2889-7-9-6-9" />
      <stop
         offset="1"
         style="stop-color:#181818;stop-opacity:0"
         id="stop2891-6-6-1-7" />
    </linearGradient>
    <linearGradient
       id="linearGradient3702-501-757-8-4-1-1">
      <stop
         offset="0"
         style="stop-color:#181818;stop-opacity:0"
         id="stop2895-8-9-9-1" />
      <stop
         offset="0.5"
         style="stop-color:#181818;stop-opacity:1"
         id="stop2897-7-8-7-7" />
      <stop
         offset="1"
         style="stop-color:#181818;stop-opacity:0"
         id="stop2899-4-5-1-5" />
    </linearGradient>
    <linearGradient
       gradientUnits="userSpaceOnUse"
       xlink:href="#linearGradient3702-501-757-8-4-1-1"
       id="linearGradient13984"
       y2="39.999443"
       x2="25.058096"
       y1="47.027729"
       x1="25.058096" />
    <linearGradient
       id="linearGradient4632-92-3-0-8-1">
      <stop
         offset="0"
         style="stop-color:#fdfaf1;stop-opacity:1;"
         id="stop4634-68-8-0-2-9" />
      <stop
         offset="1"
         style="stop-color:#fdf6e3;stop-opacity:1;"
         id="stop4636-8-21-7-1-4" />
    </linearGradient>
    <linearGradient
       id="linearGradient4215-8-4-07-7">
      <stop
         style="stop-color:#e9e9e9;stop-opacity:1;"
         offset="0"
         id="stop4217-1-2-1-2" />
      <stop
         style="stop-color:#ffffff;stop-opacity:1;"
         offset="1"
         id="stop4219-3-4-0-96" />
    </linearGradient>
    <linearGradient
       id="linearGradient4011-9-9-70-61-7">
      <stop
         id="stop4013-5-4-3-8-3"
         style="stop-color:#ffffff;stop-opacity:1;"
         offset="0" />
      <stop
         offset="0.507761"
         style="stop-color:#ffffff;stop-opacity:0.23529412;"
         id="stop4015-1-5-70-9-5" />
      <stop
         id="stop4017-7-0-13-0-1"
         style="stop-color:#ffffff;stop-opacity:0.15686275;"
         offset="0.83456558" />
      <stop
         id="stop4019-1-12-7-0-7"
         style="stop-color:#ffffff;stop-opacity:0.39215687;"
         offset="1" />
    </linearGradient>
    <linearGradient
       y2="55.052982"
       x2="30.271185"
       y1="10.028973"
       x1="30.271185"
       gradientTransform="matrix(1.111111,0,0,1.25,-3.5555565,-7.9999992)"
       gradientUnits="userSpaceOnUse"
       id="linearGradient3643"
       xlink:href="#linearGradient27416-1-2" />
    <linearGradient
       y2="43"
       x2="23.99999"
       y1="4.999989"
       x1="23.99999"
       gradientTransform="matrix(3.0252084,0,0,3.0333391,-8.9490401,-12.12691)"
       gradientUnits="userSpaceOnUse"
       id="linearGradient3647"
       xlink:href="#linearGradient3924-2-2-5-8" />
    <radialGradient
       r="27.5"
       fy="4.3419166"
       fx="31.999998"
       cy="4.3419166"
       cx="31.999998"
       gradientTransform="matrix(2.0667434e-8,4.7482002,-4.7482,2.0667434e-8,84.272253,-146.20619)"
       gradientUnits="userSpaceOnUse"
       id="radialGradient3651"
       xlink:href="#linearGradient4632-92-3-0-8-1" />
    <linearGradient
       y2="44.340794"
       x2="71.204407"
       y1="6.2375584"
       x1="71.204407"
       gradientTransform="matrix(-0.45945942,0,0,0.45945942,74.958504,20.349516)"
       gradientUnits="userSpaceOnUse"
       id="linearGradient3659"
       xlink:href="#linearGradient4011-9-9-70-61-7" />
    <linearGradient
       y2="8.0928917"
       x2="38.976662"
       y1="59.967686"
       x1="38.976662"
       gradientTransform="matrix(-0.37254354,0,0,0.37254354,53.921253,19.33366)"
       gradientUnits="userSpaceOnUse"
       id="linearGradient3662"
       xlink:href="#linearGradient4215-8-4-07-7" />
    <linearGradient
       inkscape:collect="always"
       xlink:href="#linearGradient1894"
       id="linearGradient1884"
       gradientUnits="userSpaceOnUse"
       gradientTransform="matrix(3.0020959,0,0,3.010165,-135.70627,-133.78954)"
       x1="23.99999"
       y1="4.999989"
       x2="23.99999"
       y2="43" />
  </defs>
  <metadata
     id="metadata13991">
    <rdf:RDF>
      <cc:Work
         rdf:about="">
        <dc:format>image/svg+xml</dc:format>
        <dc:type
           rdf:resource="http://purl.org/dc/dcmitype/StillImage" />
      </cc:Work>
    </rdf:RDF>
  </metadata>
  <g
     id="layer4-0"
     transform="matrix(0.9047486,0,0,0.9047486,-570.51497,-675.56047)" />
  <g
     id="layer4-0-7"
     transform="matrix(0.9047486,0,0,0.9047486,-570.51497,-668.32248)" />
  <g
     id="layer1-3"
     transform="matrix(0.9047486,0,0,0.9047486,-73.807987,0.49666306)" />
  <g
     id="g407"
     transform="translate(0.3439222,0.88481082)">
    <g
       transform="matrix(3.2450567,0,0,1.4679992,-14.225283,53.177973)"
       id="g3712-8-2-4-4"
       style="opacity:0.4;stroke-width:0.486571">
      <rect
         width="5"
         height="7"
         x="38"
         y="40"
         id="rect2801-5-5-7-9"
         style="fill:url(#radialGradient3337-2-2);fill-opacity:1;stroke:none;stroke-width:0.486571" />
      <rect
         width="5"
         height="7"
         x="-10"
         y="-47"
         transform="scale(-1)"
         id="rect3696-3-0-3-7"
         style="fill:url(#radialGradient3339-1-4);fill-opacity:1;stroke:none;stroke-width:0.486571" />
      <rect
         width="28"
         height="7.0000005"
         x="10"
         y="40"
         id="rect3700-5-6-8-4"
         style="fill:url(#linearGradient13984);fill-opacity:1;stroke:none;stroke-width:0.486571" />
    </g>
    <rect
       width="110.98074"
       height="110.98074"
       rx="16.12488"
       ry="16.125092"
       x="8.165597"
       y="6.0551968"
       id="rect5505-21-3-8-5-2"
       style="color:#000000;display:inline;overflow:visible;visibility:visible;fill:url(#radialGradient3651);fill-opacity:1;fill-rule:nonzero;stroke:none;stroke-width:1;marker:none;enable-background:accumulate" />
    <rect
       width="111.93271"
       height="112.23354"
       rx="16.570267"
       ry="16.570255"
       x="7.6896095"
       y="4.5564423"
       id="rect6741-5-0-2-3"
       style="fill:none;stroke:url(#linearGradient3647);stroke-width:1;stroke-linecap:round;stroke-linejoin:round;stroke-miterlimit:4;stroke-dasharray:none;stroke-dashoffset:0;stroke-opacity:1" />
    <rect
       width="113.03594"
       height="113.03594"
       rx="17.833946"
       ry="17.833946"
       x="7.1379943"
       y="5.0276012"
       id="rect5505-21-3-8-9-1-1"
       style="color:#000000;display:inline;overflow:visible;visibility:visible;opacity:0.3;fill:none;stroke:#7d5f00;stroke-width:1;stroke-linecap:butt;stroke-linejoin:miter;stroke-miterlimit:4;stroke-dasharray:none;stroke-dashoffset:0;stroke-opacity:1;marker:none;enable-background:accumulate" />
    <g
       id="g1667"
       transform="matrix(2.255717,0,0,2.255717,4.0428289,-8.3518154)"
       style="stroke-width:0.486571">
      <g
         aria-label="ꦲ"
         id="text1089"
         style="font-size:31.8424px;line-height:1.25;opacity:0.729059;fill:#ffffff;stroke-width:0.38734">
        <path
           d="M 14.009043,40.827328 Q 11.875602,40.572589 10.633748,39.426262 9.4237373,38.279936 9.4237373,36.050968 v -7.578491 q 0,-5.031099 5.0947837,-5.031099 5.031099,0 5.031099,4.871887 v 8.342708 q 0,2.006072 1.878702,2.006072 h 2.611077 q 1.878701,0 1.878701,-2.006072 v -8.183496 q 0,-2.451865 1.146327,-3.725561 1.178168,-1.305538 3.693718,-1.305538 1.305538,0 2.356338,0.54132 1.050799,0.509479 1.655804,1.464751 1.210012,-2.006071 3.757403,-2.006071 4.90373,0 4.90373,4.871887 V 40.827328 H 40.661131 V 28.281422 q 0,-2.420022 -2.292652,-2.420022 -2.324496,0 -2.324496,2.515549 V 40.827328 H 33.273695 V 28.281422 q 0,-1.114484 -0.605006,-1.751332 -0.605006,-0.66869 -1.687647,-0.66869 -2.292653,0 -2.292653,2.515549 v 8.21534 q 0,4.235039 -4.489778,4.235039 H 21.26911 q -4.457936,0 -4.457936,-4.235039 v -8.310867 q 0,-2.420022 -2.292653,-2.420022 -2.324495,0 -2.324495,2.515549 v 7.546649 q 0,2.356338 2.38818,2.738447 z"
           id="path2040"
           style="stroke-width:0.38734" />
      </g>
      <g
         aria-label="ꦲ"
         id="text1093"
         style="font-size:31.8424px;line-height:1.25;opacity:0.729059;mix-blend-mode:multiply;fill:#fdefc4;stroke-width:0.38734">
        <path
           d="M 14.009043,38.532162 Q 11.875602,38.277423 10.633748,37.131096 9.4237373,35.98477 9.4237373,33.755802 v -7.578491 q 0,-5.031099 5.0947837,-5.031099 5.031099,0 5.031099,4.871887 v 8.342708 q 0,2.006072 1.878702,2.006072 h 2.611077 q 1.878701,0 1.878701,-2.006072 v -8.183496 q 0,-2.451865 1.146327,-3.725561 1.178168,-1.305538 3.693718,-1.305538 1.305538,0 2.356338,0.54132 1.050799,0.509479 1.655804,1.464751 1.210012,-2.006071 3.757403,-2.006071 4.90373,0 4.90373,4.871887 V 38.532162 H 40.661131 V 25.986256 q 0,-2.420022 -2.292652,-2.420022 -2.324496,0 -2.324496,2.515549 V 38.532162 H 33.273695 V 25.986256 q 0,-1.114484 -0.605006,-1.751332 -0.605006,-0.66869 -1.687647,-0.66869 -2.292653,0 -2.292653,2.515549 v 8.21534 q 0,4.235039 -4.489778,4.235039 H 21.26911 q -4.457936,0 -4.457936,-4.235039 v -8.310867 q 0,-2.420022 -2.292653,-2.420022 -2.324495,0 -2.324495,2.515549 v 7.546649 q 0,2.356338 2.38818,2.738447 z"
           id="path2034"
           style="stroke-width:0.38734" />
      </g>
      <g
         aria-label="ꦲ"
         id="text1035"
         style="font-size:31.8424px;line-height:1.25;fill:#63452c;stroke-width:0.38734">
        <path
           d="M 14.009043,39.674019 Q 11.875602,39.41928 10.633748,38.272953 9.4237373,37.126627 9.4237373,34.897659 v -7.578491 q 0,-5.031099 5.0947837,-5.031099 5.031099,0 5.031099,4.871887 v 8.342709 q 0,2.006071 1.878702,2.006071 h 2.611077 q 1.878701,0 1.878701,-2.006071 v -8.183497 q 0,-2.451865 1.146327,-3.725561 1.178168,-1.305538 3.693718,-1.305538 1.305538,0 2.356338,0.54132 1.050799,0.509479 1.655804,1.464751 1.210012,-2.006071 3.757403,-2.006071 4.90373,0 4.90373,4.871887 V 39.674019 H 40.661131 V 27.128113 q 0,-2.420022 -2.292652,-2.420022 -2.324496,0 -2.324496,2.51555 V 39.674019 H 33.273695 V 27.128113 q 0,-1.114484 -0.605006,-1.751332 -0.605006,-0.66869 -1.687647,-0.66869 -2.292653,0 -2.292653,2.51555 v 8.215339 q 0,4.235039 -4.489778,4.235039 H 21.26911 q -4.457936,0 -4.457936,-4.235039 v -8.310867 q 0,-2.420022 -2.292653,-2.420022 -2.324495,0 -2.324495,2.51555 v 7.546648 q 0,2.356338 2.38818,2.738447 z"
           id="path2037"
           style="stroke-width:0.38734" />
      </g>
    </g>
    <rect
       width="111.07755"
       height="111.3761"
       rx="16.44367"
       ry="16.443663"
       x="-119.19474"
       y="-117.23363"
       id="rect1882"
       style="fill:none;stroke:url(#linearGradient1884);stroke-width:1;stroke-linecap:round;stroke-linejoin:round;stroke-miterlimit:4;stroke-dasharray:none;stroke-dashoffset:0;stroke-opacity:1"
       transform="scale(-1)" />
  </g>
</svg>
